<svg width="490" height="490" viewBox="0 0 490 490" fill="none" xmlns="http://www.w3.org/2000/svg">
<g clip-path="url(#clip0_20_11)">
<path d="M460.656 132.911C401.956 10.811 248.456 -33.589 128.856 28.811C119.456 34.011 115.356 45.411 120.556 55.811C125.756 65.211 137.156 69.311 147.556 64.111C247.456 12.111 374.956 49.211 424.256 150.411C489.656 284.711 405.256 387.111 336.856 425.011C243.756 476.711 125.656 442.411 69.256 354.311L138.556 368.811C148.956 370.911 160.356 364.611 162.456 353.211C164.556 342.811 158.256 331.411 146.856 329.311L24.056 304.311C3.45598 302.311 -0.944021 320.911 0.155979 327.211L15.756 451.011C16.756 461.411 25.156 468.711 35.556 468.711C48.356 468.711 56.356 456.211 55.356 444.811L49.356 394.311C106.756 465.111 219.656 525.511 356.756 462.511C414.856 432.511 548.256 314.811 460.656 132.911Z" fill="#E2DCDE"/>
</g>
<defs>
<clipPath id="clip0_20_11">
<rect width="489.645" height="489.645" fill="white"/>
</clipPath>
</defs>
</svg>
